<?xml version="1.0" encoding="utf-8"?>
<!-- Generator: Adobe Illustrator 24.1.2, SVG Export Plug-In . SVG Version: 6.00 Build 0)  -->
<svg version="1.1" id="Logo" xmlns="http://www.w3.org/2000/svg" xmlns:xlink="http://www.w3.org/1999/xlink" x="0px" y="0px"
	 viewBox="0 0 170.1 19.8" style="enable-background:new 0 0 170.1 19.8;" xml:space="preserve">
<style type="text/css">
	.st0{enable-background:new    ;}
	.st1{fill:#374761;}
	.st2{fill:#6200EE;}
</style>
<g>
	<g class="st0">
		<path class="st1" d="M26.2,1.9h6.3c1.5,0,2.8,0.3,4,0.9c1.2,0.6,2,1.4,2.7,2.4c0.6,1,1,2.2,1,3.6s-0.3,2.6-1,3.6
			c-0.6,1-1.5,1.8-2.7,2.4c-1.2,0.6-2.5,0.9-4,0.9h-6.3V1.9z M32.3,13.1c1.4,0,2.5-0.4,3.3-1.2c0.8-0.8,1.2-1.8,1.2-3.1
			s-0.4-2.4-1.2-3.1c-0.8-0.8-1.9-1.2-3.3-1.2h-2.9v8.6H32.3z"/>
		<path class="st1" d="M44.3,15.2c-0.9-0.5-1.6-1.1-2.1-1.9c-0.5-0.8-0.7-1.8-0.7-2.8s0.2-2,0.7-2.8c0.5-0.8,1.2-1.5,2.1-1.9
			c0.9-0.5,1.9-0.7,3-0.7s2.1,0.2,3,0.7c0.9,0.5,1.6,1.1,2.1,1.9c0.5,0.8,0.7,1.8,0.7,2.8s-0.3,2-0.7,2.8c-0.5,0.8-1.2,1.5-2.1,1.9
			c-0.9,0.5-1.9,0.7-3,0.7S45.2,15.6,44.3,15.2z M49.2,12.5c0.5-0.5,0.8-1.2,0.8-2.1c0-0.9-0.3-1.6-0.8-2.1
			c-0.5-0.5-1.2-0.8-1.9-0.8c-0.8,0-1.4,0.3-2,0.8c-0.5,0.5-0.8,1.2-0.8,2.1c0,0.9,0.3,1.6,0.8,2.1c0.5,0.5,1.2,0.8,2,0.8
			C48.1,13.3,48.7,13.1,49.2,12.5z"/>
		<path class="st1" d="M66.1,5.1v8.8c0,1.9-0.5,3.4-1.5,4.3c-1,0.9-2.5,1.4-4.4,1.4c-1,0-2-0.1-2.9-0.4c-0.9-0.3-1.7-0.6-2.3-1.1
			l1.2-2.2c0.4,0.4,1,0.7,1.7,0.9c0.7,0.2,1.4,0.3,2.1,0.3c1.1,0,1.9-0.2,2.4-0.7c0.5-0.5,0.8-1.2,0.8-2.2v-0.5
			c-0.8,0.9-1.9,1.3-3.4,1.3c-1,0-1.9-0.2-2.7-0.6s-1.5-1-1.9-1.8c-0.5-0.8-0.7-1.7-0.7-2.7s0.2-1.9,0.7-2.7C55.6,6.6,56.2,6,57,5.6
			c0.8-0.4,1.7-0.6,2.7-0.6c1.5,0,2.7,0.5,3.5,1.5V5.1H66.1z M62.3,11.9c0.5-0.5,0.8-1.1,0.8-1.9c0-0.8-0.3-1.4-0.8-1.9
			c-0.5-0.5-1.2-0.7-2-0.7c-0.8,0-1.5,0.2-2,0.7c-0.5,0.5-0.8,1.1-0.8,1.9c0,0.8,0.3,1.4,0.8,1.9c0.5,0.5,1.2,0.7,2,0.7
			C61.1,12.7,61.8,12.4,62.3,11.9z"/>
		<path class="st1" d="M79.9,5.1v8.8c0,1.9-0.5,3.4-1.5,4.3c-1,0.9-2.5,1.4-4.4,1.4c-1,0-2-0.1-2.9-0.4c-0.9-0.3-1.7-0.6-2.3-1.1
			L70,16c0.4,0.4,1,0.7,1.7,0.9c0.7,0.2,1.4,0.3,2.1,0.3c1.1,0,1.9-0.2,2.4-0.7c0.5-0.5,0.8-1.2,0.8-2.2v-0.5
			c-0.8,0.9-1.9,1.3-3.4,1.3c-1,0-1.9-0.2-2.7-0.6c-0.8-0.4-1.5-1-1.9-1.8c-0.5-0.8-0.7-1.7-0.7-2.7s0.2-1.9,0.7-2.7
			C69.4,6.6,70,6,70.8,5.6c0.8-0.4,1.7-0.6,2.7-0.6c1.5,0,2.7,0.5,3.5,1.5V5.1H79.9z M76.1,11.9c0.5-0.5,0.8-1.1,0.8-1.9
			c0-0.8-0.3-1.4-0.8-1.9c-0.5-0.5-1.2-0.7-2-0.7c-0.8,0-1.5,0.2-2,0.7c-0.5,0.5-0.8,1.1-0.8,1.9c0,0.8,0.3,1.4,0.8,1.9
			c0.5,0.5,1.2,0.7,2,0.7C74.9,12.7,75.6,12.4,76.1,11.9z"/>
		<path class="st1" d="M83,3.1c-0.4-0.3-0.5-0.7-0.5-1.2S82.6,1,83,0.7c0.4-0.3,0.8-0.5,1.4-0.5s1,0.2,1.4,0.5
			c0.4,0.3,0.5,0.7,0.5,1.2c0,0.5-0.2,0.9-0.5,1.3c-0.4,0.3-0.8,0.5-1.4,0.5S83.3,3.4,83,3.1z M82.8,5.1h3.1v10.6h-3.1V5.1z"/>
		<path class="st1" d="M99.1,11.3h-8c0.1,0.7,0.5,1.2,1,1.6s1.2,0.6,2,0.6c0.6,0,1-0.1,1.5-0.2c0.4-0.2,0.8-0.4,1.2-0.8l1.6,1.8
			c-1,1.1-2.5,1.7-4.4,1.7c-1.2,0-2.3-0.2-3.2-0.7c-0.9-0.5-1.6-1.1-2.1-1.9c-0.5-0.8-0.7-1.8-0.7-2.8c0-1,0.2-2,0.7-2.8
			c0.5-0.8,1.2-1.5,2-2c0.9-0.5,1.8-0.7,2.9-0.7c1,0,2,0.2,2.8,0.7c0.8,0.4,1.5,1.1,2,1.9s0.7,1.8,0.7,2.9
			C99.1,10.5,99.1,10.7,99.1,11.3z M91.9,7.8c-0.5,0.4-0.8,0.9-0.9,1.6h5.2c-0.1-0.7-0.4-1.2-0.9-1.6c-0.5-0.4-1.1-0.6-1.7-0.6
			C92.9,7.2,92.4,7.4,91.9,7.8z"/>
		<path class="st1" d="M121.9,1.9l-4.5,13.8h-3.4l-3-9.4l-3.1,9.4h-3.4L99.8,1.9h3.3l3.1,9.7l3.3-9.7h3l3.2,9.8l3.2-9.8H121.9z"/>
		<path class="st1" d="M130.7,6.1c0.9,0.8,1.3,2,1.3,3.5v6.1h-2.9v-1.3c-0.6,1-1.7,1.5-3.2,1.5c-0.8,0-1.5-0.1-2.1-0.4
			c-0.6-0.3-1.1-0.7-1.4-1.1c-0.3-0.5-0.5-1-0.5-1.7c0-1,0.4-1.8,1.1-2.3c0.7-0.6,1.9-0.8,3.4-0.8h2.4c0-0.7-0.2-1.2-0.6-1.5
			c-0.4-0.4-1-0.5-1.8-0.5c-0.6,0-1.1,0.1-1.7,0.3c-0.5,0.2-1,0.4-1.4,0.7l-1.1-2.2c0.6-0.4,1.3-0.7,2.1-0.9
			c0.8-0.2,1.6-0.3,2.5-0.3C128.6,4.9,129.9,5.3,130.7,6.1z M128.1,13.4c0.4-0.2,0.7-0.6,0.9-1.1v-1.1h-2.1c-1.3,0-1.9,0.4-1.9,1.2
			c0,0.4,0.2,0.7,0.5,0.9c0.3,0.2,0.7,0.3,1.3,0.3C127.2,13.8,127.7,13.7,128.1,13.4z"/>
		<path class="st1" d="M134.8,1h3.1v14.6h-3.1V1z"/>
		<path class="st1" d="M145.3,11.5l-1.5,1.5v2.7h-3.1V1h3.1v8.3l4.5-4.3h3.7l-4.4,4.5l4.8,6.1h-3.7L145.3,11.5z"/>
		<path class="st1" d="M153.9,3.1c-0.4-0.3-0.5-0.7-0.5-1.2s0.2-0.9,0.5-1.2c0.4-0.3,0.8-0.5,1.4-0.5s1,0.2,1.4,0.5
			c0.4,0.3,0.5,0.7,0.5,1.2c0,0.5-0.2,0.9-0.5,1.3c-0.4,0.3-0.8,0.5-1.4,0.5S154.2,3.4,153.9,3.1z M153.7,5.1h3.1v10.6h-3.1V5.1z"/>
		<path class="st1" d="M170,11.3h-8c0.1,0.7,0.5,1.2,1,1.6c0.5,0.4,1.2,0.6,2,0.6c0.6,0,1-0.1,1.5-0.2c0.4-0.2,0.8-0.4,1.2-0.8
			l1.6,1.8c-1,1.1-2.5,1.7-4.4,1.7c-1.2,0-2.3-0.2-3.2-0.7c-0.9-0.5-1.6-1.1-2.1-1.9c-0.5-0.8-0.7-1.8-0.7-2.8c0-1,0.2-2,0.7-2.8
			c0.5-0.8,1.2-1.5,2-2c0.9-0.5,1.8-0.7,2.9-0.7c1,0,2,0.2,2.8,0.7c0.8,0.4,1.5,1.1,2,1.9c0.5,0.8,0.7,1.8,0.7,2.9
			C170.1,10.5,170.1,10.7,170,11.3z M162.8,7.8c-0.5,0.4-0.8,0.9-0.9,1.6h5.2c-0.1-0.7-0.4-1.2-0.9-1.6c-0.5-0.4-1.1-0.6-1.7-0.6
			C163.9,7.2,163.3,7.4,162.8,7.8z"/>
	</g>
	<g id="Group_8" transform="rotate(-69 110.862 -83.02)">
		<g id="Group_4" transform="translate(-24 -150)">
			<path id="Path_3" class="st2" d="M6.5,9.8C6.2,8.9,6.1,8,6.3,7c0.7-5,5.8-7.2,10.1-4.9c1.2,0.6,2.1,1.5,2.8,2.6
				c0.7,1.1,1.2,3.4,0.9,4.6c-0.3,1.1-1.5,1.8-2.7,1.6c-0.5-0.1-1-0.4-1.4-0.7c-0.4-0.4-0.9-0.6-1.4-0.6c-0.2,0-0.5,0.1-0.7,0.2
				c-0.7,0.3-1.1,1-1.1,1.7c0,0.6-0.1,1.3-0.5,1.8c-0.3,0.3-0.7,0.5-1.1,0.6C8.9,14.3,7,11.8,6.5,9.8L6.5,9.8z"/>
			<g id="Group_3">
				<g id="Group_2" transform="translate(2.857)">
					<path id="Path_4" class="st2" d="M1.9-1.3c-1.4,1.4-0.7,4,1.5,4c1.2-0.1,2.2-1.1,2.2-2.3c0-0.6-0.3-1.3-0.8-1.7
						C4-2,2.8-2,1.9-1.3z"/>
					<path id="Path_5" class="st2" d="M7.4-3.8c-1.4,1.4-0.7,4,1.5,4c1.2-0.1,2.2-1.1,2.2-2.3c0-0.6-0.3-1.3-0.8-1.7
						C9.4-4.5,8.2-4.5,7.4-3.8z"/>
				</g>
				<path id="Path_6" class="st2" d="M16.3-2.3c-0.9,0.7-1,2-0.3,2.9c0.2,0.3,0.6,0.5,0.9,0.6c1.2,0.3,2.4-0.3,2.8-1.5
					c0.3-1.1-0.4-2.2-1.6-2.5C17.5-2.9,16.8-2.8,16.3-2.3z"/>
				<path id="Path_7" class="st2" d="M2.1,4.1c-0.9,0.7-1,2-0.3,2.9C2,7.3,2.3,7.5,2.7,7.6C3.9,8,5.1,7.3,5.5,6.1
					C5.7,5,5,3.9,3.9,3.6C3.2,3.5,2.6,3.7,2.1,4.1z"/>
			</g>
		</g>
	</g>
</g>
</svg>
